<svg width="204" height="45" viewBox="0 0 204 45" fill="none" xmlns="http://www.w3.org/2000/svg">
<path d="M84.1761 36V15.084C84.1761 14.172 84.4041 13.344 84.8601 12.6C85.3161 11.832 85.9161 11.22 86.6601 10.764C87.4281 10.308 88.2681 10.08 89.1801 10.08H105.056C105.968 10.08 106.808 10.308 107.576 10.764C108.344 11.22 108.956 11.832 109.412 12.6C109.868 13.344 110.096 14.172 110.096 15.084V36H105.308V27.288H88.9281V36H84.1761ZM88.9281 22.536H105.308V15.3C105.308 15.18 105.26 15.084 105.164 15.012C105.068 14.916 104.96 14.868 104.84 14.868H89.3601C89.2401 14.868 89.1321 14.916 89.0361 15.012C88.9641 15.084 88.9281 15.18 88.9281 15.3V22.536ZM114.126 36V15.12H130.362C131.274 15.12 132.102 15.348 132.846 15.804C133.614 16.26 134.214 16.86 134.646 17.604C135.102 18.348 135.33 19.176 135.33 20.088V36H130.614V20.268C130.614 20.148 130.566 20.052 130.47 19.98C130.398 19.884 130.302 19.836 130.182 19.836H119.274C119.154 19.836 119.046 19.884 118.95 19.98C118.878 20.052 118.842 20.148 118.842 20.268V36H114.126ZM139.12 36V15.12H143.836V36H139.12ZM139.12 13.032V8.28H143.836V13.032H139.12ZM150.377 36C149.465 36 148.625 35.772 147.857 35.316C147.113 34.86 146.513 34.26 146.057 33.516C145.601 32.748 145.373 31.908 145.373 30.996V28.044H150.125V30.78C150.125 30.9 150.161 31.008 150.233 31.104C150.329 31.176 150.437 31.212 150.557 31.212H166.037C166.157 31.212 166.265 31.176 166.361 31.104C166.457 31.008 166.505 30.9 166.505 30.78V10.08H171.293V30.996C171.293 31.908 171.065 32.748 170.609 33.516C170.153 34.26 169.541 34.86 168.773 35.316C168.029 35.772 167.201 36 166.289 36H150.377ZM175.335 36V10.116H196.215C197.127 10.116 197.967 10.344 198.735 10.8C199.503 11.256 200.115 11.868 200.571 12.636C201.027 13.38 201.255 14.208 201.255 15.12V22.104C201.255 23.016 201.027 23.856 200.571 24.624C200.115 25.392 199.503 26.004 198.735 26.46C197.967 26.892 197.127 27.108 196.215 27.108L180.087 27.144V36H175.335ZM180.519 22.32H195.999C196.119 22.32 196.227 22.284 196.323 22.212C196.419 22.14 196.467 22.044 196.467 21.924V15.3C196.467 15.18 196.419 15.084 196.323 15.012C196.227 14.916 196.119 14.868 195.999 14.868H180.519C180.399 14.868 180.291 14.916 180.195 15.012C180.123 15.084 180.087 15.18 180.087 15.3V21.924C180.087 22.044 180.123 22.14 180.195 22.212C180.291 22.284 180.399 22.32 180.519 22.32Z" fill="white"/>
<path d="M32.9547 14.2501C31.6926 14.1523 30.5992 14.9581 30.5122 16.0503L29.5884 27.6508C29.5014 28.743 30.4538 29.7075 31.7159 29.8054C32.978 29.9032 34.0714 29.0974 34.1584 28.0052L35.0822 16.4047C35.1691 15.3125 34.2167 14.348 32.9547 14.2501Z" fill="white"/>
<path d="M26.3593 7.57113C25.0972 7.47327 24.0038 8.27912 23.9168 9.37133L22.0166 33.2322C21.9296 34.3244 22.882 35.2888 24.1441 35.3867C25.4062 35.4846 26.4996 34.6787 26.5866 33.5859L28.4868 9.72557C28.5738 8.63348 27.6214 7.669 26.3593 7.57113Z" fill="white"/>
<path d="M19.6564 1.28158C18.3943 1.18371 17.3009 1.98957 17.2139 3.08178L14.4004 38.4106C14.3135 39.5028 15.2658 40.4673 16.528 40.5651C17.7901 40.663 18.8835 39.8571 18.9704 38.7649L21.7839 3.43614C21.8709 2.34393 20.9185 1.37945 19.6564 1.28158Z" fill="white"/>
<path d="M12.1163 6.46673C10.8542 6.36886 9.76081 7.17472 9.67383 8.26693L7.77361 32.1278C7.68663 33.22 8.63902 34.1844 9.90114 34.2823C11.1633 34.3802 12.2566 33.5743 12.3437 32.4815L14.2438 8.62117C14.3308 7.52908 13.3783 6.56458 12.1163 6.46673Z" fill="white"/>
<path d="M4.50009 11.6458C3.23796 11.548 2.1446 12.3538 2.05761 13.446L1.07079 25.8375C0.983812 26.9297 1.9362 27.8942 3.19832 27.9921C4.46044 28.0899 5.55377 27.2847 5.64079 26.1919L6.62762 13.8004C6.7146 12.7082 5.76208 11.7437 4.50009 11.6458Z" fill="white"/>
<path d="M55.3021 4.04556C54.04 3.94769 52.9466 4.75355 52.8596 5.84576L50.0461 41.1746C49.9591 42.2668 50.9115 43.2313 52.1737 43.3291C53.4358 43.427 54.5291 42.6211 54.6161 41.5289L57.4296 6.20012C57.5166 5.10791 56.5641 4.14341 55.3021 4.04556Z" fill="white"/>
<path d="M47.6858 9.22479C46.4236 9.12692 45.3303 9.93278 45.2433 11.025L43.3431 34.8858C43.2561 35.978 44.2085 36.9425 45.4706 37.0404C46.7327 37.1382 47.8261 36.3324 47.9131 35.2396L49.8133 11.3792C49.9003 10.2871 48.9477 9.32264 47.6858 9.22479Z" fill="white"/>
<path d="M40.3557 11.7734C39.0936 11.6755 38.0002 12.4814 37.9132 13.5736L36.5065 31.238C36.4195 32.3302 37.3719 33.2947 38.634 33.3925C39.8961 33.4904 40.9894 32.6851 41.0765 31.5923L42.4832 13.9279C42.57 12.8357 41.6177 11.8712 40.3557 11.7734Z" fill="white"/>
<path d="M61.9287 10.3292C60.6666 10.2313 59.5732 11.0372 59.4862 12.1294L57.586 35.9902C57.499 37.0824 58.4514 38.0469 59.7135 38.1448C60.9756 38.2426 62.069 37.4368 62.156 36.344L64.0562 12.4836C64.1432 11.3915 63.1908 10.4271 61.9287 10.3292Z" fill="white"/>
<path d="M68.6317 16.6186C67.3696 16.5208 66.2762 17.3266 66.1893 18.4188L65.2024 30.8103C65.1155 31.9025 66.0679 32.867 67.33 32.9648C68.5921 33.0627 69.6854 32.2574 69.7725 31.1646L70.7593 18.7732C70.8463 17.681 69.8939 16.7165 68.6317 16.6186Z" fill="white"/>
</svg>
