<svg width="60" height="45" viewBox="0 0 60 45" fill="none" xmlns="http://www.w3.org/2000/svg">
<path d="M27.4791 14.2501C26.4267 14.1523 25.515 14.9581 25.4425 16.0503L24.6722 27.6508C24.5996 28.743 25.3938 29.7075 26.4462 29.8053C27.4986 29.9032 28.4103 29.0973 28.4828 28.0051L29.2532 16.4047C29.3256 15.3125 28.5314 14.348 27.4791 14.2501Z" fill="#2C62BF"/>
<path d="M21.9796 7.5711C20.9272 7.47323 20.0155 8.27909 19.943 9.3713L18.3585 33.2321C18.286 34.3243 19.0801 35.2888 20.1325 35.3867C21.1849 35.4845 22.0966 34.6787 22.1692 33.5859L23.7537 9.72554C23.8262 8.63345 23.032 7.66897 21.9796 7.5711Z" fill="#2C62BF"/>
<path d="M16.3904 1.28161C15.338 1.18375 14.4263 1.9896 14.3538 3.08181L12.0078 38.4106C11.9353 39.5028 12.7294 40.4673 13.7818 40.5652C14.8342 40.663 15.7459 39.8572 15.8185 38.765L18.1645 3.43617C18.237 2.34396 17.4429 1.37948 16.3904 1.28161Z" fill="#2C62BF"/>
<path d="M10.1032 6.46673C9.05074 6.36886 8.13904 7.17472 8.06651 8.26693L6.48202 32.1278C6.40949 33.22 7.20364 34.1844 8.25605 34.2823C9.30847 34.3802 10.2202 33.5743 10.2927 32.4815L11.8772 8.62117C11.9497 7.52908 11.1555 6.56458 10.1032 6.46673Z" fill="#2C62BF"/>
<path d="M3.75238 11.6459C2.69997 11.548 1.78827 12.3539 1.71574 13.4461L0.892879 25.8375C0.820351 26.9297 1.61449 27.8942 2.66691 27.9921C3.71933 28.09 4.63099 27.2847 4.70356 26.1919L5.52642 13.8004C5.59894 12.7082 4.80469 11.7437 3.75238 11.6459Z" fill="#2C62BF"/>
<path d="M46.1135 4.04553C45.0611 3.94766 44.1493 4.75352 44.0768 5.84573L41.7308 41.1745C41.6583 42.2667 42.4524 43.2312 43.5048 43.3291C44.5573 43.427 45.469 42.6211 45.5415 41.5289L47.8875 6.20009C47.96 5.10788 47.1658 4.14338 46.1135 4.04553Z" fill="#2C62BF"/>
<path d="M39.7626 9.22479C38.7102 9.12692 37.7985 9.93278 37.7259 11.025L36.1414 34.8858C36.0689 35.978 36.8631 36.9425 37.9155 37.0404C38.9679 37.1382 39.8796 36.3324 39.9522 35.2396L41.5366 11.3792C41.6091 10.2871 40.8149 9.32264 39.7626 9.22479Z" fill="#2C62BF"/>
<path d="M33.6505 11.7734C32.598 11.6755 31.6863 12.4814 31.6138 13.5736L30.4408 31.238C30.3683 32.3302 31.1624 33.2947 32.2148 33.3925C33.2672 33.4904 34.1789 32.6851 34.2515 31.5923L35.4245 13.9279C35.4969 12.8357 34.7028 11.8712 33.6505 11.7734Z" fill="#2C62BF"/>
<path d="M51.639 10.3292C50.5866 10.2313 49.6749 11.0371 49.6023 12.1294L48.0179 35.9902C47.9453 37.0824 48.7395 38.0469 49.7919 38.1447C50.8443 38.2426 51.756 37.4367 51.8286 36.344L53.413 12.4836C53.4855 11.3915 52.6914 10.427 51.639 10.3292Z" fill="#2C62BF"/>
<path d="M57.2283 16.6186C56.1759 16.5208 55.2642 17.3266 55.1917 18.4188L54.3688 30.8103C54.2963 31.9025 55.0904 32.867 56.1429 32.9649C57.1953 33.0627 58.1069 32.2575 58.1795 31.1647L59.0024 18.7732C59.0749 17.681 58.2808 16.7165 57.2283 16.6186Z" fill="#2C62BF"/>
</svg>
